<svg xmlns="http://www.w3.org/2000/svg" width="32" height="32" viewBox="0 0 32 32">
  <defs>
    <linearGradient id="warmth" x1="0%" y1="0%" x2="100%" y2="100%">
      <stop offset="0%" stop-color="#f48c6a"/>
      <stop offset="100%" stop-color="#e86d42"/>
    </linearGradient>
  </defs>
  <!-- Rounded square background -->
  <rect width="32" height="32" rx="8" fill="url(#warmth)"/>
  <!-- Ticket icon -->
  <g fill="none" stroke="white" stroke-width="2" stroke-linecap="round" stroke-linejoin="round">
    <!-- Ticket body -->
    <path d="M7 10a2 2 0 0 1 2-2h14a2 2 0 0 1 2 2v3a2 2 0 0 0 0 4v3a2 2 0 0 1-2 2H9a2 2 0 0 1-2-2v-3a2 2 0 0 0 0-4v-3z"/>
    <!-- Dashed line -->
    <line x1="13" y1="8" x2="13" y2="11" stroke-dasharray="2 2"/>
    <line x1="13" y1="21" x2="13" y2="24" stroke-dasharray="2 2"/>
    <line x1="13" y1="14" x2="13" y2="18"/>
  </g>
</svg>
